<svg version="1.2" xmlns="http://www.w3.org/2000/svg" viewBox="720 600 460 460" width="500" height="500">
<style>.a{fill:#c2b59b}</style>
<path class="a" d="m910.7 989.4q-1.7 0.2-3.4 0.3 1.9-0.1 3.8-0.3zm0 0q-1.7 0.2-3.4 0.3 1.9-0.1 3.7-0.3zm0 0q-1.6 0.2-3.3 0.3 1.9-0.1 3.7-0.3zm0 0q-1.6 0.2-3.3 0.3 1.9-0.1 3.7-0.3zm0 0q-1.6 0.2-3.3 0.3 1.9-0.1 3.7-0.3zm0 0q-1.6 0.2-3.3 0.3 1.8-0.1 3.7-0.3zm0 0q-1.6 0.2-3.3 0.3 1.8-0.1 3.7-0.3zm0 0q-1.6 0.2-3.3 0.3 1.8-0.1 3.7-0.3zm0 0q-1.7 0.2-3.4 0.3 1.9-0.1 3.8-0.3zm0 0q-1.7 0.2-3.4 0.3 1.9-0.1 3.8-0.3zm0 0q-1.7 0.2-3.4 0.3 1.9-0.1 3.8-0.3zm0 0q-1.7 0.2-3.4 0.3 1.9-0.1 3.7-0.3zm0 0q-1.6 0.2-3.3 0.3 1.9-0.1 3.7-0.3zm0 0q-1.6 0.2-3.3 0.3 1.9-0.1 3.7-0.3zm0 0q-1.6 0.2-3.3 0.3 1.9-0.1 3.7-0.3zm0 0q-1.6 0.2-3.3 0.3 1.8-0.1 3.7-0.3zm0 0q-1.6 0.2-3.3 0.3 1.8-0.1 3.7-0.3zm0 0q-1.6 0.2-3.3 0.3 1.8-0.1 3.7-0.3zm0 0q-1.7 0.2-3.4 0.3 1.9-0.1 3.8-0.3zm0 0q-1.7 0.2-3.4 0.3 1.9-0.1 3.8-0.3zm0 0q-1.7 0.2-3.4 0.3 1.9-0.1 3.8-0.3zm0 0q-1.7 0.2-3.4 0.3 1.9-0.1 3.7-0.3zm0 0q-1.6 0.2-3.3 0.3 1.9-0.1 3.7-0.3zm0 0q-1.6 0.2-3.3 0.3 1.9-0.1 3.7-0.3zm0 0q-1.6 0.2-3.3 0.3 1.9-0.1 3.7-0.3zm0 0q-1.6 0.2-3.3 0.3 1.8-0.1 3.7-0.3zm0 0q-1.6 0.2-3.3 0.3 1.8-0.1 3.7-0.3zm0 0q-1.6 0.2-3.3 0.3 1.8-0.1 3.7-0.3zm0 0q-1.7 0.2-3.4 0.3 1.9-0.1 3.8-0.3zm0 0q-1.7 0.2-3.4 0.3 1.9-0.1 3.8-0.3zm0 0q-1.7 0.2-3.4 0.3 1.9-0.1 3.8-0.3zm0 0q-1.7 0.2-3.4 0.3 1.9-0.1 3.7-0.3zm0 0q-1.6 0.2-3.3 0.3 1.9-0.1 3.7-0.3zm0 0q-1.6 0.2-3.3 0.3 1.9-0.1 3.7-0.3zm0 0q-1.6 0.2-3.3 0.3 1.9-0.1 3.7-0.3zm0 0q-1.6 0.2-3.3 0.3 1.8-0.1 3.7-0.3zm0 0q-1.6 0.2-3.3 0.3 1.8-0.1 3.7-0.3zm0 0q-1.6 0.2-3.3 0.3 1.8-0.1 3.7-0.3z"/>
<path class="a" d="m1096.9 761.5c-0.2-3.5-0.5-7.1-0.8-10.6-0.7-6.5-1.6-12.9-2.8-19.2 0-0.2-0.1-0.3-0.1-0.5-0.5-2.6-1-5.4-1.6-8q0 0 0 0 0-0.1 0-0.1 0 0 0 0c-0.3-1-0.5-2-0.7-2.9q-0.4-1.6-0.8-3.2-0.6-2.4-1.3-4.8-1.8-6.5-4-12.9-1.8-5.6-4-11c-0.6-1.5-1.3-3.1-1.9-4.7-0.2-0.5-0.5-1-0.7-1.4-0.2-0.6-0.5-1.1-0.7-1.7v-0.1c-1.4-3.2-2.9-6.3-4.5-9.4q-2.1-4.2-4.4-8.4l-0.5-1c0 0 0 0 0 0-4.6-8.1-9.6-15.9-15.2-23.4 0 0 0-0.1 0-0.1q0 0 0 0-0.8-1.1-1.7-2.3-0.2-0.3-0.5-0.6l-0.8-1.1-0.8 0.3-0.4 0.1c-2.7 0.8-5.5 1.1-8.3 1.1q-0.6 0-1.2 0c-8.3-0.3-15.8-4-21.1-9.7q-1.8-1.9-3.2-4c-0.4-0.8-0.9-1.6-1.3-2.3q-0.4-0.6-0.7-1.2c-1.9-4-2.9-8.5-2.9-13.2 0-0.3 0-0.7 0-1.1q0.1-3.6 1.1-7l0.2-0.8 0.1-0.5-1-0.8c-0.4-0.3-0.9-0.6-1.2-0.9-5.6-4.1-11.3-7.9-17.2-11.4q-5.3-3.1-10.7-5.9c-4.3-2.3-8.8-4.3-13.3-6.2-10.1-4.3-20.5-7.7-31.1-10.1-13.9-3.2-28.1-4.8-42.6-4.8-14.4 0-28.6 1.6-42.4 4.8-11.2 2.5-22.1 6.1-32.7 10.7-4.7 2-9.4 4.2-13.9 6.6q-5.6 2.9-10.9 6.2-7.7 4.8-15.1 10.2c-0.3 0.3-0.7 0.5-1.1 0.9l-1 0.8 0.1 0.4 0.2 0.8c0.8 2.6 1.1 5.4 1.1 8.2q0 3.7-0.9 7.3c-0.6 2.3-1.4 4.6-2.5 6.7q-1.3 2.4-3 4.6-0.9 1.2-1.9 2.2c-5.6 5.9-13.4 9.5-22.1 9.5-2.8 0-5.6-0.3-8.3-1.1l-0.7-0.2-0.5-0.1-0.8 1q-0.6 0.8-1.2 1.5l-1 1.5q-2.8 3.7-5.5 7.6c-3.4 5-6.5 10.2-9.4 15.4-3.9 6.8-7.3 13.8-10.4 20.9-0.2 0.4-0.3 0.7-0.5 1.1q0 0 0 0-1.9 4.6-3.7 9.4-3.5 9.2-6.1 18.6-0.5 1.7-0.9 3.3-1.1 3.9-2 7.9c-0.7 2.9-1.3 5.9-1.8 8.8q-1 5.1-1.7 10.2-0.9 6.1-1.5 12.4c-0.2 3.1-0.5 6.2-0.6 9.4q-0.3 5.5-0.3 11.1v0.6c0 4.9 0.2 9.8 0.5 14.6 0.2 3.4 0.4 6.8 0.8 10.2 0.7 6.5 1.7 12.9 2.9 19.3q0.8 4.1 1.7 8.3c0.6 2.4 1.1 4.8 1.8 7.3q0.6 2.2 1.2 4.3c2.5 9 5.5 17.7 9.1 26.2l0.8 1.9c1 2.4 2.1 4.6 3.1 6.9q2.9 6.2 6.2 12.2c2.6 4.9 5.4 9.5 8.3 14.1q3.6 5.6 7.6 10.9 0.3 0.5 0.6 0.9l0.7 1 0.1 0.1h0.1l1.3-0.4c3.3-1.1 6.7-1.7 10.1-1.7 9.7 0 18.3 4.5 23.9 11.6 3.8 4.8 6.2 10.9 6.5 17.5 0 0.4 0 0.8 0 1.3q0 5.1-1.7 10-0.1 0.2-0.2 0.5l-0.5 1.4 1.2 0.8c2.5 1.9 5 3.8 7.6 5.6q2 1.3 3.9 2.6 1.6 1 3.2 2c8.8 5.6 17.9 10.4 27.3 14.4 10.7 4.6 21.8 8.2 33.1 10.7q0 0 0 0 0.1 0 0.1 0 0 0 0 0 0.1 0 0.1 0c13.5 3.1 27.5 4.7 41.6 4.7 14.2 0 28.1-1.6 41.7-4.6 11.3-2.6 22.2-6.1 32.8-10.6 9.7-4.2 19.1-9.1 28.2-14.8v-0.1c4.9-3 9.6-6.3 14.2-9.9l1.2-0.8-0.4-1.1-0.1-0.3c-1.3-3.4-1.9-6.9-1.9-10.5 0-3.8 0.7-7.3 1.9-10.7 1.4-3.6 3.4-6.9 5.9-9.7 5.5-6 13.3-9.9 22.1-10q0.2 0 0.5 0 2.5 0 5 0.4 2.6 0.5 5.1 1.3l1.3 0.5 0.9-1.2q9-12.1 16.2-25.4c0.3-0.3 0.4-0.6 0.6-0.9 1.2-2.2 2.4-4.5 3.5-6.8 2.1-4.2 4.1-8.5 5.9-12.8v-0.1c2.2-5.2 4.2-10.5 6-15.8q1.7-5.1 3.2-10.3c0.3-1 0.6-2 0.9-3q2.4-8.7 4.1-17.7 2.1-10.8 3.1-21.7 0.8-7.1 1-14.2 0.1-4.2 0.1-8.4c0-4.5-0.1-8.9-0.4-13.4zm-3.6 22.3c-0.1 0.9-0.1 1.9-0.2 2.8q-0.2 5.4-0.8 10.9c-0.2 2.2-0.4 4.4-0.7 6.6-0.4 3.5-0.9 6.8-1.6 10.2v0.1q-0.5 2.9-1.1 5.8v0.1q-1.6 8.2-3.8 16.2c-1 3.4-2 6.8-3.1 10.2-1 3-2 5.9-3.1 8.9v0.1c-0.5 1.2-0.9 2.4-1.4 3.6q-1.9 4.7-4 9.4c-1 2.3-2.2 4.7-3.3 7q0 0.1 0 0.2-2.4 4.8-5 9.5c-4.4 8-9.4 15.8-14.8 23.2q-2.7-0.8-5.5-1.2-2-0.3-4.1-0.3h-0.4q-0.5 0-1 0-3.4 0.1-6.6 0.9c-6.6 1.4-12.6 4.9-17.2 9.7-2.6 2.8-4.8 6-6.4 9.5-2 4.3-3.1 9.1-3.1 14.2 0 3.5 0.6 7.1 1.7 10.5q-1.8 1.3-3.6 2.6-3.1 2.2-6.2 4.3c-2 1.2-4 2.5-5.9 3.7q-1.4 0.8-2.7 1.6-13.5 8-27.9 13.6h-0.1c-6.2 2.4-12.6 4.5-19.1 6.2q-11.7 3.2-23.7 4.7-0.6 0.1-1.2 0.2c-0.8 0.1-1.5 0.2-2.3 0.2q-2 0.3-4 0.4-1.9 0.2-3.8 0.3-1.3 0.1-2.7 0.2c-2.8 0.1-5.6 0.3-8.4 0.3-0.8 0-1.6 0-2.4 0-5.4 0-10.8-0.3-16.1-0.8q0 0-0.1 0 0 0 0 0 0 0 0 0 0 0-0.1 0c-13-1.1-25.8-3.7-38.3-7.5q-6.1-1.9-12.2-4.3c-9.7-3.7-19.1-8.3-28.1-13.6q0 0 0-0.1c-2.1-1.2-4.1-2.4-6-3.7q-4.7-3-9.2-6.3-0.2-0.1-0.3-0.1c0 0 0 0 0-0.1q-1.3-0.9-2.6-1.9c1-3 1.6-6.1 1.7-9.3q0-0.6 0-1.1c0-9-3.5-17.1-9.1-23.2-4.5-4.9-10.4-8.5-17.1-10.1-2.6-0.7-5.3-1-8.1-1q-0.4 0-0.7 0-4.8 0.1-9.3 1.5-0.6-0.8-1.1-1.6-4-5.5-7.7-11.3c-3.6-5.7-6.9-11.6-9.9-17.6v-0.2c-0.7-1.3-1.3-2.6-1.9-3.9-1.5-3-2.9-6.1-4.2-9.2q-1.7-4-3.3-8.1c-2.3-6.1-4.4-12.4-6.2-18.8-1.1-4-2.1-8-3-12.1-0.7-2.9-1.3-5.9-1.8-8.8q-1.7-8.7-2.6-17.6c-0.4-3.5-0.7-7.1-0.9-10.7q-0.1-1.1-0.1-2.1c-0.2-3.5-0.3-7-0.3-10.5v-1.2c0-3.3 0-6.5 0.2-9.7 0-0.5 0-0.9 0.1-1.4q0.2-4.8 0.6-9.5c0.3-3.8 0.8-7.6 1.3-11.3 0.5-3.7 1.1-7.3 1.8-10.9 0.3-2 0.7-4 1.2-6 0.8-3.9 1.8-7.8 2.8-11.6q2.5-9.3 5.8-18.2c0.3-0.9 0.7-1.9 1-2.8 1-2.7 2.1-5.4 3.2-8 2.6-6.2 5.5-12.4 8.7-18.3q5-9.4 10.9-18.2c1.8-2.8 3.8-5.6 5.8-8.3q0.8-1.1 1.6-2.1c2.6 0.6 5.2 0.9 8 0.9 8.9 0 17-3.4 23.1-8.9q2.2-2 3.9-4.3c1.3-1.6 2.4-3.2 3.3-5q1.6-2.9 2.5-6.2c1-3.1 1.5-6.4 1.5-9.8q0-4.1-0.9-7.9 6-4.5 12.4-8.5 0.4-0.3 0.8-0.5 3.8-2.4 7.7-4.6c0.8-0.4 1.6-0.9 2.4-1.3 5.3-2.9 10.8-5.6 16.2-7.9 17.5-7.5 35.9-12.2 54.8-14.1q9.2-0.9 18.4-0.9 6.1 0 12.1 0.4 1.2 0.1 2.4 0.2 2 0.1 4 0.4c18.3 1.8 36.2 6.3 53.2 13.4q8.1 3.3 15.9 7.5c3.6 1.9 7.1 3.9 10.5 6q7.5 4.6 14.6 9.9c-0.6 2.6-0.9 5.2-0.9 7.9q0 1.8 0.2 3.5c0.4 4.2 1.6 8.1 3.4 11.7 0.4 0.9 0.9 1.7 1.4 2.5q0 0 0.1 0.1c0.8 1.5 1.9 3 3.1 4.3 0.8 1 1.7 1.9 2.6 2.8 5.2 4.9 11.9 8.2 19.4 9.1 1.3 0.2 2.7 0.2 4.1 0.2 2.7 0 5.4-0.3 8-0.9q0.2 0.1 0.2 0.3c6.4 8.4 12.2 17.4 17.2 26.7 0.4 0.6 0.7 1.2 1 1.8 1.1 2.1 2.3 4.3 3.3 6.5 2.6 5.1 4.9 10.5 7.1 15.9q0.1 0.3 0.3 0.7c0.2 0.6 0.5 1.2 0.7 1.9 0.3 0.6 0.5 1.1 0.7 1.7v0.1q1.2 3.1 2.2 6.3c2.3 6.7 4.3 13.5 6 20.4 0.6 2.7 1.2 5.4 1.8 8.1 0.2 1.2 0.5 2.5 0.7 3.7 0.2 1 0.3 2.1 0.5 3.1 0.6 3.2 1.1 6.4 1.5 9.6q0 0 0 0 0 0.1 0 0.1 0 0 0 0 0 0.1 0 0.1 0.2 1.4 0.3 2.8c0.5 4.1 0.9 8.2 1.1 12.4 0.1 1.1 0.2 2.2 0.2 3.3 0.2 3.6 0.3 7.2 0.3 10.9-0.1 2.8-0.1 5.8-0.2 8.8z"/>
</svg>
